<svg xmlns="http://www.w3.org/2000/svg" width="23" height="24" viewBox="0 0 23 24" fill="none">
  <path d="M11.2941 23.3587C17.5317 23.3587 22.5882 18.3022 22.5882 12.0646C22.5882 5.82706 17.5317 0.770508 11.2941 0.770508C5.05655 0.770508 0 5.82706 0 12.0646C0 18.3022 5.05655 23.3587 11.2941 23.3587Z" fill="white"/>
  <path d="M11.2944 6.23529C13.1935 6.23529 13.4177 6.24198 14.1673 6.27712C14.86 6.30891 15.2365 6.42436 15.4875 6.5214C15.8188 6.65024 16.0564 6.80418 16.3057 7.05348C16.555 7.30279 16.7089 7.53871 16.8377 7.87168C16.9348 8.12266 17.0502 8.49913 17.082 9.19184C17.1155 9.94143 17.1239 10.1673 17.1239 12.0647C17.1239 13.9621 17.1172 14.188 17.082 14.9376C17.0502 15.6303 16.9348 16.0068 16.8377 16.2578C16.7089 16.5891 16.555 16.8267 16.3057 17.076C16.0564 17.3253 15.8204 17.4792 15.4875 17.608C15.2365 17.7051 14.86 17.8205 14.1673 17.8523C13.4177 17.8858 13.1935 17.8942 11.2944 17.8942C9.39534 17.8942 9.17113 17.8875 8.42154 17.8523C7.72883 17.8205 7.35236 17.7051 7.10138 17.608C6.77008 17.4792 6.53249 17.3253 6.28318 17.076C6.03388 16.8267 5.87994 16.5907 5.7511 16.2578C5.65406 16.0068 5.53861 15.6303 5.50682 14.9376C5.47335 14.188 5.46499 13.9621 5.46499 12.0647C5.46499 10.1673 5.47168 9.94143 5.50682 9.19184C5.53861 8.49913 5.65406 8.12266 5.7511 7.87168C5.87994 7.54038 6.03388 7.30279 6.28318 7.05348C6.53249 6.80418 6.76841 6.65024 7.10138 6.5214C7.35236 6.42436 7.72883 6.30891 8.42154 6.27712C9.17113 6.24365 9.39701 6.23529 11.2944 6.23529ZM11.2944 4.95361C9.36355 4.95361 9.12093 4.96198 8.36297 4.99712C7.60669 5.03225 7.08967 5.15105 6.63623 5.32841C6.16941 5.51079 5.77286 5.7534 5.37631 6.14828C4.98143 6.54316 4.73714 6.9397 4.55644 7.4082C4.38075 7.85997 4.26028 8.37699 4.22514 9.13495C4.19001 9.89291 4.18164 10.1355 4.18164 12.0664C4.18164 13.9973 4.19001 14.2399 4.22514 14.9978C4.26028 15.7541 4.37908 16.2712 4.55644 16.7246C4.73882 17.1914 4.98143 17.588 5.37631 17.9845C5.77118 18.3794 6.16773 18.6237 6.63623 18.8044C7.08799 18.9801 7.60501 19.1005 8.36297 19.1357C9.12093 19.1708 9.36355 19.1792 11.2944 19.1792C13.2253 19.1792 13.4679 19.1708 14.2259 19.1357C14.9822 19.1005 15.4992 18.9817 15.9526 18.8044C16.4194 18.622 16.816 18.3794 17.2125 17.9845C17.6074 17.5896 17.8517 17.1931 18.0324 16.7246C18.2081 16.2728 18.3286 15.7558 18.3637 14.9978C18.3988 14.2399 18.4072 13.9973 18.4072 12.0664C18.4072 10.1355 18.3988 9.89291 18.3637 9.13495C18.3286 8.37866 18.2098 7.86164 18.0324 7.4082C17.85 6.94138 17.6074 6.54483 17.2125 6.14828C16.8177 5.7534 16.4211 5.50912 15.9526 5.32841C15.5009 5.15272 14.9838 5.03225 14.2259 4.99712C13.4679 4.96198 13.2253 4.95361 11.2944 4.95361Z" fill="#616161"/>
  <path d="M11.2945 8.41406C9.27827 8.41406 7.64355 10.0488 7.64355 12.065C7.64355 14.0812 9.27827 15.7159 11.2945 15.7159C13.3107 15.7159 14.9454 14.0812 14.9454 12.065C14.9454 10.0488 13.3107 8.41406 11.2945 8.41406ZM11.2945 14.4359C9.98604 14.4359 8.92355 13.3751 8.92355 12.065C8.92355 10.7549 9.98436 9.69406 11.2945 9.69406C12.6046 9.69406 13.6654 10.7549 13.6654 12.065C13.6654 13.3751 12.6046 14.4359 11.2945 14.4359Z" fill="#616161"/>
  <path d="M15.0906 9.12171C15.5619 9.12171 15.944 8.73966 15.944 8.26837C15.944 7.79709 15.5619 7.41504 15.0906 7.41504C14.6194 7.41504 14.2373 7.79709 14.2373 8.26837C14.2373 8.73966 14.6194 9.12171 15.0906 9.12171Z" fill="#616161"/>
</svg>