<svg width="23" height="24" viewBox="0 0 23 24" fill="none" xmlns="http://www.w3.org/2000/svg">
<g clip-path="url(#clip0_23_734)">
<path class="primaryColor" d="M23 12.2708C23 18.6223 17.8513 23.7711 11.4997 23.7711C5.14873 23.7705 0 18.6218 0 12.2708C0 5.91924 5.14873 0.770508 11.5003 0.770508C17.8518 0.770508 23.0006 5.91924 23.0006 12.2708H23Z" fill="#3DA98F"/>
<path d="M13.1599 11.2144L17.812 6.23877H16.0454L12.3941 10.1447L9.59774 6.23877H4.76562L9.65678 13.0713L4.76562 18.3034H6.53223L10.4232 14.1416L13.4024 18.3034H18.2345L13.1599 11.215V11.2144ZM7.25519 7.51799H8.9396L15.7444 17.023H14.06L7.25519 7.51799Z" fill="white"/>
</g>
<defs>
<clipPath id="clip0_23_734">
<rect width="23" height="23" fill="white" transform="translate(0 0.770508)"/>
</clipPath>
</defs>
</svg>
