<svg width="81" height="80" viewBox="0 0 81 80" fill="none" xmlns="http://www.w3.org/2000/svg">
<path class="primaryColor" d="M40.2309 0C18.1744 0 0.22998 17.944 0.22998 40C0.22998 62.056 18.0839 80 40.0285 80H40.5911L40.6018 47.8814C44.4104 47.7803 47.5375 44.9851 48.1569 41.3293H60.0831C59.9092 47.3295 56.9791 52.8897 52.1394 56.4391C51.5484 55.8818 50.7533 55.5428 49.8801 55.5428C48.0486 55.5428 46.5614 57.03 46.5614 58.8562C46.5614 60.6824 48.0486 62.1749 49.8801 62.1749C50.7196 62.1749 51.4863 61.859 52.0719 61.3408L63.3557 72.619L63.897 72.2463C74.1231 64.7305 80.23 52.6749 80.23 39.9982C80.2318 17.944 62.2874 0 40.2309 0ZM49.8819 61.048C48.6769 61.048 47.6901 60.0683 47.6901 58.8562C47.6901 57.6441 48.6769 56.6698 49.8819 56.6698C51.087 56.6698 52.0684 57.6494 52.0684 58.8562C52.0684 60.063 51.0887 61.048 49.8819 61.048ZM40.3817 45.9257C37.1464 45.9257 34.5251 43.3045 34.5251 40.0692C34.5251 36.8339 37.1464 34.2127 40.3817 34.2127C43.6171 34.2127 46.2384 36.8339 46.2384 40.0692C46.2384 43.3045 43.6171 45.9257 40.3817 45.9257ZM32.5019 40.1633H27.9834C22.4107 40.1739 16.8398 40.197 15.1094 40.2023C14.8947 38.7595 13.7411 37.6219 12.2929 37.4249C13.3187 24.1803 23.8376 13.3866 37.1038 11.9544C37.0985 12.0396 37.0931 12.123 37.0931 12.2135C37.0931 13.848 38.2875 15.2163 39.8475 15.4807V20.2245C35.9662 20.3771 32.2641 21.6052 29.0589 23.8076C28.53 23.4633 27.9088 23.2788 27.2611 23.2788C26.3772 23.2788 25.5431 23.6284 24.9166 24.2531C24.2919 24.8778 23.9476 25.7119 23.9476 26.5975C23.9476 27.483 24.2919 28.3154 24.9166 28.9418C25.5413 29.5683 26.3755 29.9161 27.2611 29.9161C27.9603 29.9161 28.6187 29.7014 29.1707 29.3021L34.557 34.6883C33.2774 36.085 32.4948 37.9502 32.4948 40.0018C32.4948 40.0586 32.4948 40.1083 32.5001 40.165L32.5019 40.1633ZM14.0286 40.7046C14.0286 41.9167 13.0489 42.8963 11.8421 42.8963C10.6353 42.8963 9.65031 41.9167 9.65031 40.7046C9.65031 39.4924 10.6371 38.5181 11.8421 38.5181C13.0472 38.5181 14.0286 39.4978 14.0286 40.7046ZM38.2201 12.2135C38.2201 11.0085 39.1997 10.0217 40.4119 10.0217C41.624 10.0217 42.5984 11.0085 42.5984 12.2135C42.5984 13.4185 41.6187 14.4053 40.4119 14.4053C39.2051 14.4053 38.2201 13.4185 38.2201 12.2135ZM28.8122 28.145C27.9621 28.9951 26.5707 28.9951 25.7188 28.145C24.8616 27.2878 24.8616 25.9035 25.7188 25.0464C26.1412 24.6187 26.7056 24.4092 27.2628 24.4092C27.8201 24.4092 28.3845 24.6169 28.8122 25.0464C29.6676 25.9035 29.6676 27.2878 28.8122 28.145ZM63.4889 71.1531L52.7836 60.4481C53.048 59.9743 53.1954 59.4277 53.1954 58.8544C53.1954 58.2812 53.0605 57.7896 52.8227 57.3335C57.9446 53.5765 61.0433 47.6774 61.2119 41.3275H65.331C65.5901 42.8928 66.9531 44.0942 68.593 44.0942C70.4245 44.0942 71.9118 42.607 71.9118 40.7755C71.9118 38.944 70.4245 37.4622 68.593 37.4622C66.9656 37.4622 65.6079 38.6459 65.3364 40.2005H48.2651C48.2704 40.1331 48.2704 40.0657 48.2704 39.9982C48.2704 35.6431 44.744 32.1115 40.3835 32.1115C38.4845 32.1115 36.7382 32.7876 35.3752 33.9092L29.9729 28.507C30.3669 27.9551 30.5816 27.2896 30.5816 26.5975C30.5816 25.8645 30.3456 25.167 29.9054 24.592C33.1 22.4624 36.8074 21.3355 40.6657 21.3355C47.3529 21.3355 53.6071 24.8281 57.1513 30.4734C56.9933 30.5799 56.8407 30.7041 56.7005 30.8443C56.0758 31.4761 55.7315 32.3031 55.7315 33.194C55.7315 34.0849 56.0758 34.9119 56.7005 35.5384C57.3323 36.1631 58.1593 36.5074 59.0502 36.5074C59.9411 36.5074 60.7682 36.1631 61.3947 35.5384C62.0194 34.9137 62.3637 34.0796 62.3637 33.194C62.3637 32.3084 62.0194 31.4761 61.3947 30.8443C60.77 30.2196 59.9358 29.8753 59.0502 29.8753C58.7521 29.8753 58.4592 29.9144 58.1771 29.9942C54.5087 24.0401 47.9794 20.315 40.9763 20.2139V15.4807C42.5363 15.211 43.7253 13.8462 43.7253 12.2135C43.7253 10.382 42.2381 8.8948 40.4119 8.8948C39.0933 8.8948 37.9503 9.6668 37.4197 10.7884C23.3744 12.0893 12.1864 23.4758 11.1659 37.464C9.65563 37.7745 8.52335 39.1091 8.52335 40.7028C8.52335 42.5343 10.0106 44.0215 11.8421 44.0215C13.4536 44.0215 14.8006 42.8608 15.0934 41.3293C19.2854 41.3115 26.7109 41.2902 32.603 41.2849C32.8391 42.7614 33.494 44.096 34.4346 45.1715L22.2598 57.3406C21.6901 56.9289 21.0211 56.7319 20.3555 56.7319C19.5054 56.7319 18.6589 57.0531 18.0111 57.7009C17.3793 58.3256 17.0368 59.1597 17.0368 60.0453C17.0368 60.9308 17.3811 61.7632 18.0111 62.3896C18.6358 63.0214 19.4646 63.3639 20.3555 63.3639C20.9803 63.3639 21.5783 63.1954 22.0912 62.8688C24.3736 64.6719 26.9026 66.1147 29.6019 67.1565C29.5629 67.3588 29.5398 67.5735 29.5398 67.7936C29.5398 69.6198 31.0271 71.107 32.8533 71.107C34.6795 71.107 36.172 69.6198 36.172 67.7936C36.172 65.9674 34.6848 64.4749 32.8533 64.4749C31.6482 64.4749 30.5887 65.128 30.0084 66.097C27.4723 65.1227 25.1012 63.7863 22.9484 62.1075C23.866 60.9575 23.9068 59.33 23.0602 58.1357L35.2297 45.9665C36.401 46.9799 37.8669 47.6507 39.4837 47.8371L39.466 78.8731C18.3998 78.5678 1.35694 61.2503 1.35694 40C1.35694 18.7497 18.7938 1.12694 40.2309 1.12694C61.668 1.12694 79.1048 18.5687 79.1048 40C79.1048 52.2259 73.2624 63.8484 63.4871 71.1549L63.4889 71.1531ZM66.4065 40.7755C66.4065 39.5705 67.3862 38.5891 68.593 38.5891C69.7998 38.5891 70.7848 39.5687 70.7848 40.7755C70.7848 41.9823 69.8052 42.9673 68.593 42.9673C67.3809 42.9673 66.4065 41.9877 66.4065 40.7755ZM57.4991 31.6429C57.9268 31.2152 58.4859 31.0005 59.0485 31.0005C59.611 31.0005 60.1701 31.2152 60.5925 31.6429C61.4497 32.493 61.4497 33.8844 60.5925 34.7362C59.7424 35.5934 58.351 35.5934 57.4991 34.7362C56.6419 33.8862 56.6419 32.4948 57.4991 31.6429ZM21.8978 61.5946C21.0761 62.4234 19.6332 62.4234 18.8044 61.5946C17.9472 60.7445 17.9472 59.3531 18.8044 58.4959C19.6545 57.6459 21.0459 57.6459 21.8978 58.4959C22.755 59.3531 22.755 60.7445 21.8978 61.5946ZM30.6632 67.7918C30.6632 66.5797 31.6429 65.6001 32.8497 65.6001C34.0565 65.6001 35.0415 66.5797 35.0415 67.7918C35.0415 69.0039 34.0548 69.9783 32.8497 69.9783C31.6447 69.9783 30.6632 68.9986 30.6632 67.7918Z" fill="#3DA98F"/>
</svg>
