<?xml version="1.0" encoding="UTF-8"?>
<svg id="Ebene_2" data-name="Ebene 2" xmlns="http://www.w3.org/2000/svg" viewBox="0 0 607.82 607.82">
  <defs>
    <style>
      .cls-1 {
        fill: #fff;
        stroke-width: 0px;
      }
    </style>
  </defs>
  <g id="Ebene_1-2" data-name="Ebene 1">
    <path class="cls-1" d="M303.91,0C136.33,0,0,136.33,0,303.91s135.65,303.91,302.37,303.91h4.28l.09-244.03c28.94-.77,52.69-22,57.4-49.78h90.62c-1.33,45.59-23.59,87.83-60.35,114.8-4.49-4.24-10.53-6.81-17.16-6.81-13.91,0-25.21,11.3-25.21,25.17s11.3,25.21,25.21,25.21c6.38,0,12.2-2.4,16.65-6.34l85.74,85.69,4.11-2.83c77.69-57.1,124.09-148.7,124.09-245.01C607.82,136.33,471.49,0,303.91,0ZM377.24,463.83c-9.16,0-16.65-7.45-16.65-16.65s7.49-16.61,16.65-16.61,16.61,7.45,16.61,16.61-7.45,16.65-16.61,16.65ZM303.82,354.56c-28.17,0-51-22.83-51-51s22.83-51,51-51,51,22.83,51,51-22.83,51-51,51ZM245.18,305.15h-34.33c-42.33.09-84.67.26-97.81.3-1.63-10.96-10.4-19.6-21.4-21.1,7.79-100.63,87.71-182.65,188.51-193.52-.04.64-.09,1.28-.09,1.97,0,12.41,9.07,22.81,20.93,24.83v36.04c-29.49,1.16-57.61,10.49-81.97,27.22-4.02-2.61-8.73-4.02-13.65-4.02-6.72,0-13.06,2.65-17.81,7.41s-7.36,11.09-7.36,17.81,2.61,13.06,7.36,17.81c4.75,4.75,11.09,7.41,17.81,7.41,5.31,0,10.32-1.63,14.51-4.67l40.92,40.92c-9.72,10.62-15.67,24.78-15.67,40.36,0,.43,0,.81.04,1.24ZM104.83,309.26c0,9.2-7.45,16.65-16.61,16.65s-16.65-7.45-16.65-16.65,7.49-16.61,16.65-16.61,16.61,7.45,16.61,16.61ZM288.63,92.8c0-9.16,7.45-16.65,16.65-16.65s16.61,7.49,16.61,16.65-7.45,16.65-16.61,16.65-16.65-7.49-16.65-16.65ZM217.15,213.85c-6.46,6.46-17.04,6.46-23.5,0-6.51-6.51-6.51-17.04,0-23.54,3.21-3.25,7.49-4.84,11.73-4.84s8.52,1.58,11.77,4.84c6.51,6.51,6.51,17.04,0,23.54ZM480.61,540.62l-81.33-81.33c2.01-3.6,3.12-7.75,3.12-12.11s-1.03-8.09-2.82-11.56c38.91-28.55,62.45-73.37,63.74-121.61h31.29c1.97,11.9,12.33,21.02,24.78,21.02,13.91,0,25.21-11.3,25.21-25.21s-11.3-25.17-25.21-25.17c-12.37,0-22.69,8.99-24.74,20.8h-129.7c.04-.51.04-1.03.04-1.54,0-33.09-26.8-59.93-59.93-59.93-14.43,0-27.69,5.14-38.05,13.65l-41.05-41.05c3-4.2,4.62-9.25,4.62-14.51,0-5.56-1.8-10.87-5.14-15.24,24.27-16.18,52.44-24.74,81.76-24.74,50.81,0,98.32,26.54,125.25,69.43-1.2.81-2.35,1.75-3.42,2.82-4.75,4.79-7.36,11.09-7.36,17.85s2.61,13.06,7.36,17.81c4.79,4.75,11.09,7.36,17.85,7.36s13.06-2.61,17.81-7.36c4.75-4.75,7.36-11.09,7.36-17.81s-2.61-13.06-7.36-17.85c-4.75-4.75-11.09-7.36-17.81-7.36-2.27,0-4.49.3-6.63.9-27.87-45.24-77.48-73.54-130.68-74.31v-35.96c11.86-2.05,20.89-12.41,20.89-24.83,0-13.91-11.3-25.21-25.17-25.21-10.02,0-18.71,5.86-22.73,14.38-106.71,9.89-191.72,96.4-199.47,202.68-11.47,2.35-20.08,12.5-20.08,24.61,0,13.91,11.3,25.21,25.21,25.21,12.24,0,22.47-8.82,24.7-20.46,31.85-.13,88.26-.3,133.04-.34,1.8,11.21,6.76,21.36,13.91,29.53l-92.5,92.46c-4.32-3.12-9.42-4.62-14.47-4.62-6.46,0-12.88,2.44-17.81,7.36-4.79,4.75-7.41,11.09-7.41,17.81s2.61,13.06,7.41,17.81c4.75,4.79,11.04,7.41,17.81,7.41,4.75,0,9.29-1.28,13.18-3.77,17.34,13.7,36.55,24.66,57.06,32.57-.3,1.54-.47,3.17-.47,4.84,0,13.87,11.3,25.17,25.17,25.17s25.21-11.3,25.21-25.17-11.3-25.21-25.21-25.21c-9.16,0-17.21,4.97-21.62,12.33-19.26-7.41-37.28-17.55-53.63-30.31,6.98-8.73,7.28-21.1.86-30.18l92.46-92.46c8.9,7.7,20.03,12.8,32.32,14.21l-.13,235.81C138.04,596.95,8.56,465.37,8.56,303.91S141.04,8.56,303.91,8.56s295.35,132.52,295.35,295.35c0,92.89-44.39,181.19-118.65,236.71ZM502.78,309.82c0-9.16,7.45-16.61,16.61-16.61s16.65,7.45,16.65,16.61-7.45,16.65-16.65,16.65-16.61-7.45-16.61-16.65ZM435.11,240.43c3.25-3.25,7.49-4.88,11.77-4.88s8.52,1.63,11.73,4.88c6.51,6.46,6.51,17.04,0,23.5-6.46,6.51-17.04,6.51-23.5,0-6.51-6.46-6.51-17.04,0-23.5ZM164.63,467.98c-6.25,6.29-17.21,6.29-23.5,0-6.51-6.46-6.51-17.04,0-23.54,6.46-6.46,17.04-6.46,23.5,0,6.51,6.51,6.51,17.08,0,23.54ZM231.23,515.07c0-9.2,7.45-16.65,16.61-16.65s16.65,7.45,16.65,16.65-7.49,16.61-16.65,16.61-16.61-7.45-16.61-16.61Z"/>
  </g>
</svg>