<?xml version="1.0" encoding="UTF-8"?>
<svg id="Ebene_2" data-name="Ebene 2" xmlns="http://www.w3.org/2000/svg" viewBox="0 0 944.61 332.07">
  <defs>
    <style>
      .cls-1 {
        fill: #fff;
        stroke-width: 0px;
      }
    </style>
  </defs>
  <g id="Ebene_1-2" data-name="Ebene 1">
    <g>
      <path class="cls-1" d="M5.01,131.07c-3.34,0-5.01-1.67-5.01-5.01V14.27c0-3.34,1.67-5.01,5.01-5.01h45.55c15.69,0,27.11,3.59,34.26,10.77,7.15,7.18,10.73,18.62,10.73,34.3v31.66c0,15.69-3.58,27.12-10.73,34.3-7.15,7.18-18.57,10.77-34.26,10.77H5.01ZM9.92,121.15h40.63c8.57,0,15.42-1.13,20.55-3.4,5.13-2.27,8.84-5.97,11.1-11.1,2.27-5.13,3.4-12.02,3.4-20.65v-31.66c0-8.57-1.13-15.42-3.4-20.55-2.27-5.13-5.97-8.85-11.1-11.15-5.14-2.3-11.99-3.45-20.55-3.45H9.92v101.97Z"/>
      <path class="cls-1" d="M131.16,24.57c-4.35,0-6.52-2.24-6.52-6.71v-4.25c0-4.35,2.17-6.52,6.52-6.52h4.25c4.22,0,6.33,2.17,6.33,6.52v4.25c0,4.47-2.11,6.71-6.33,6.71h-4.25ZM133.34,131.07c-3.34,0-5.01-1.67-5.01-5.01V46.68c0-3.27,1.67-4.91,5.01-4.91s4.91,1.64,4.91,4.91v79.38c0,3.34-1.64,5.01-4.91,5.01Z"/>
      <path class="cls-1" d="M195.33,168.87c-7.43,0-13.1-1.53-17.01-4.58-3.91-3.06-6.21-7.86-6.9-14.41-.19-1.64.16-2.93,1.04-3.87.88-.95,2.11-1.42,3.69-1.42s2.77.41,3.59,1.23c.82.82,1.35,2.05,1.61,3.69.44,3.65,1.73,6.14,3.87,7.47,2.14,1.32,5.51,1.98,10.11,1.98h35.15c5.54,0,9.31-1.01,11.29-3.02,1.98-2.02,2.98-5.8,2.98-11.34v-27.03c-2.9,4.47-6.99,7.84-12.29,10.11s-12,3.4-20.13,3.4h-7.18c-11.78,0-20.41-2.72-25.89-8.17-5.48-5.45-8.22-14.03-8.22-25.75v-21.36c0-11.91,2.72-20.55,8.17-25.94,5.45-5.39,14.1-8.08,25.94-8.08h15.5c6.17,0,11.18.82,15.03,2.46,3.84,1.64,6.87,4.19,9.07,7.65v-5.2c0-3.27,1.67-4.91,5.01-4.91s4.91,1.64,4.91,4.91v97.9c0,8.32-1.95,14.44-5.86,18.38-3.91,3.94-10.02,5.91-18.33,5.91h-35.15ZM205.15,121.15h7.18c9.83,0,17.69-1.54,23.58-4.63,5.89-3.09,8.84-7.78,8.84-14.08v-31.56c0-7.12-1.98-12.1-5.95-14.93-3.97-2.83-10.02-4.25-18.14-4.25h-15.5c-9.01,0-15.29,1.75-18.85,5.24-3.56,3.5-5.34,9.78-5.34,18.85v21.36c0,8.88,1.78,15.1,5.34,18.66,3.56,3.56,9.84,5.34,18.85,5.34Z"/>
      <path class="cls-1" d="M291.15,24.57c-4.35,0-6.52-2.24-6.52-6.71v-4.25c0-4.35,2.17-6.52,6.52-6.52h4.25c4.22,0,6.33,2.17,6.33,6.52v4.25c0,4.47-2.11,6.71-6.33,6.71h-4.25ZM293.32,131.07c-3.34,0-5.01-1.67-5.01-5.01V46.68c0-3.27,1.67-4.91,5.01-4.91s4.91,1.64,4.91,4.91v79.38c0,3.34-1.64,5.01-4.91,5.01Z"/>
      <path class="cls-1" d="M370.05,131.07c-11.59,0-20.07-2.68-25.42-8.03-5.36-5.35-8.03-13.8-8.03-25.33v-46.02h-11.25c-3.34,0-5.01-1.67-5.01-5.01s1.67-4.91,5.01-4.91h11.25v-20.32c0-3.34,1.67-5.01,5.01-5.01s4.91,1.67,4.91,5.01v20.32h23.72c3.27,0,4.91,1.64,4.91,4.91s-1.64,5.01-4.91,5.01h-23.72v46.02c0,8.82,1.72,14.93,5.15,18.33,3.43,3.4,9.56,5.1,18.38,5.1,1.83,0,3.13.41,3.92,1.23.79.82,1.18,2.05,1.18,3.69,0,3.34-1.7,5.01-5.1,5.01Z"/>
      <path class="cls-1" d="M422.22,131.07c-9.83,0-17.03-2.28-21.59-6.85-4.57-4.57-6.85-11.77-6.85-21.59s2.3-17.04,6.9-21.64c4.6-4.6,11.78-6.9,21.55-6.9h43c-.13-8.32-2-14.13-5.62-17.44-3.62-3.31-9.78-4.96-18.47-4.96h-10.96c-8,0-13.86.85-17.58,2.55-3.72,1.7-6.02,4.6-6.9,8.69-.44,1.58-1.02,2.73-1.75,3.45-.73.72-1.88,1.09-3.45,1.09s-2.92-.46-3.83-1.37c-.91-.91-1.24-2.16-.99-3.73.82-7.18,4.08-12.41,9.78-15.69,5.7-3.27,13.94-4.91,24.71-4.91h10.96c11.78,0,20.4,2.73,25.85,8.17,5.45,5.45,8.17,14.07,8.17,25.85v50.27c0,3.34-1.64,5.01-4.91,5.01s-5.01-1.67-5.01-5.01v-9.36c-6.05,9.58-16.85,14.36-32.41,14.36h-10.58ZM422.22,121.15h10.58c6.11,0,11.48-.68,16.11-2.03,4.63-1.35,8.36-3.54,11.2-6.57s4.54-7.06,5.1-12.1v-16.35h-43c-6.99,0-11.83,1.32-14.51,3.97-2.68,2.65-4.02,7.5-4.02,14.55s1.34,11.83,4.02,14.51c2.68,2.68,7.51,4.02,14.51,4.02Z"/>
      <path class="cls-1" d="M534.76,131.07c-8.95,0-15.51-2.08-19.7-6.24-4.19-4.16-6.28-10.68-6.28-19.56V5.01c0-3.34,1.67-5.01,5.01-5.01s4.91,1.67,4.91,5.01v100.26c0,6.11,1.13,10.29,3.4,12.52,2.27,2.24,6.46,3.35,12.57,3.35,3.4,0,5.1,1.64,5.1,4.91.06,3.34-1.61,5.01-5.01,5.01Z"/>
      <path class="cls-1" d="M567.46,90.25v6.9c0,8.88,1.78,15.1,5.34,18.66,3.56,3.56,9.84,5.34,18.85,5.34h15.5c7.94,0,13.72-1.02,17.34-3.07,3.62-2.05,5.75-5.59,6.38-10.63.31-1.57.87-2.77,1.65-3.59.79-.82,2-1.23,3.64-1.23s2.88.46,3.73,1.37c.85.91,1.18,2.19.99,3.83-.82,7.94-4,13.8-9.54,17.58-5.54,3.78-13.61,5.67-24.19,5.67h-15.5c-11.78,0-20.41-2.72-25.89-8.17-5.48-5.45-8.22-14.03-8.22-25.75v-21.36c0-11.91,2.74-20.58,8.22-26.03,5.48-5.45,14.11-8.11,25.89-7.99h15.5c11.78,0,20.4,2.73,25.85,8.17,5.45,5.45,8.17,14.07,8.17,25.85v9.45c0,3.34-1.64,5.01-4.92,5.01h-68.79ZM591.65,51.69c-9.01-.13-15.29,1.59-18.85,5.15-3.56,3.56-5.34,9.88-5.34,18.95v4.54h63.79v-4.54c0-9.01-1.76-15.28-5.29-18.81-3.53-3.53-9.8-5.29-18.81-5.29h-15.5Z"/>
      <path class="cls-1" d="M5.01,332.07c-3.34,0-5.01-1.67-5.01-5.01v-111.79c0-3.34,1.67-5.01,5.01-5.01s4.91,1.67,4.91,5.01v106.88h57.46c3.34,0,5.01,1.64,5.01,4.91s-1.67,5.01-5.01,5.01H5.01Z"/>
      <path class="cls-1" d="M101.87,291.25v6.9c0,8.88,1.78,15.1,5.34,18.66,3.56,3.56,9.84,5.34,18.85,5.34h15.5c7.94,0,13.72-1.02,17.34-3.07,3.62-2.05,5.75-5.59,6.38-10.63.31-1.57.87-2.77,1.65-3.59.79-.82,2-1.23,3.64-1.23s2.88.46,3.73,1.37c.85.91,1.18,2.19.99,3.83-.82,7.94-4,13.8-9.54,17.58-5.54,3.78-13.61,5.67-24.19,5.67h-15.5c-11.78,0-20.41-2.72-25.89-8.17-5.48-5.45-8.22-14.03-8.22-25.75v-21.36c0-11.91,2.74-20.58,8.22-26.03,5.48-5.45,14.11-8.11,25.89-7.99h15.5c11.78,0,20.4,2.73,25.85,8.17,5.45,5.45,8.17,14.07,8.17,25.85v9.45c0,3.34-1.64,5.01-4.91,5.01h-68.8ZM126.06,252.69c-9.01-.13-15.29,1.59-18.85,5.15-3.56,3.56-5.34,9.88-5.34,18.95v4.54h63.79v-4.54c0-9.01-1.76-15.28-5.29-18.81-3.53-3.53-9.8-5.29-18.81-5.29h-15.5Z"/>
      <path class="cls-1" d="M213.38,332.07c-3.34,0-5.01-1.67-5.01-5.01v-79.38c0-3.27,1.67-4.91,5.01-4.91s4.91,1.64,4.91,4.91v14.55c3.27-6.3,8.02-11.12,14.22-14.46,6.2-3.34,13.56-5.01,22.07-5.01,3.34,0,5.01,1.64,5.01,4.91s-1.67,5.01-5.01,5.01c-11.21,0-19.91,2.54-26.08,7.61-6.17,5.07-9.58,12.3-10.21,21.69v45.08c0,3.34-1.64,5.01-4.91,5.01Z"/>
      <path class="cls-1" d="M284.63,332.07c-3.34,0-5.01-1.67-5.01-5.01v-79.38c0-3.27,1.67-4.91,5.01-4.91s4.91,1.64,4.91,4.91v9.07c5.98-9.32,16.82-13.99,32.51-13.99h5.29c11.78,0,20.4,2.73,25.85,8.17,5.45,5.45,8.17,14.07,8.17,25.85v50.27c0,3.34-1.64,5.01-4.91,5.01s-5.01-1.67-5.01-5.01v-50.27c0-9.01-1.78-15.28-5.34-18.81-3.56-3.53-9.81-5.29-18.76-5.29h-5.29c-9.77,0-17.45,1.54-23.06,4.63-5.61,3.09-8.76,7.91-9.45,14.46v55.28c0,3.34-1.64,5.01-4.91,5.01Z"/>
      <path class="cls-1" d="M412.68,332.07c-2.96,0-4.88-1.35-5.76-4.06l-26.65-78.53c-1.07-3.21-.03-5.32,3.12-6.33,3.09-.95,5.13.09,6.14,3.12l25.89,75.88h-3.97l24.76-74.47c.88-2.65,2.77-3.97,5.67-3.97s4.57,1.36,5.39,4.06l23.15,74.18h-4.16l27.22-75.69c1.26-3.21,3.4-4.25,6.43-3.12,3.15,1.2,4.16,3.34,3.02,6.43l-29.2,78.44c-1.01,2.71-2.96,4.06-5.86,4.06-3.21,0-5.23-1.35-6.05-4.06l-21.45-68.7h1.89l-23.62,68.7c-.5,1.58-1.29,2.65-2.36,3.21-1.07.57-2.27.85-3.59.85Z"/>
      <path class="cls-1" d="M529.1,291.25v6.9c0,8.88,1.78,15.1,5.34,18.66,3.56,3.56,9.84,5.34,18.85,5.34h15.5c7.94,0,13.72-1.02,17.34-3.07,3.62-2.05,5.75-5.59,6.38-10.63.31-1.57.87-2.77,1.65-3.59.79-.82,2-1.23,3.64-1.23s2.88.46,3.73,1.37c.85.91,1.18,2.19.99,3.83-.82,7.94-4,13.8-9.54,17.58-5.54,3.78-13.61,5.67-24.19,5.67h-15.5c-11.78,0-20.41-2.72-25.89-8.17-5.48-5.45-8.22-14.03-8.22-25.75v-21.36c0-11.91,2.74-20.58,8.22-26.03,5.48-5.45,14.11-8.11,25.89-7.99h15.5c11.78,0,20.4,2.73,25.85,8.17,5.45,5.45,8.17,14.07,8.17,25.85v9.45c0,3.34-1.64,5.01-4.91,5.01h-68.8ZM553.29,252.69c-9.01-.13-15.29,1.59-18.85,5.15-3.56,3.56-5.34,9.88-5.34,18.95v4.54h63.79v-4.54c0-9.01-1.76-15.28-5.29-18.81-3.53-3.53-9.8-5.29-18.81-5.29h-15.5Z"/>
      <path class="cls-1" d="M661.59,332.07c-8.95,0-15.52-2.08-19.7-6.24-4.19-4.16-6.29-10.68-6.29-19.56v-100.26c0-3.34,1.67-5.01,5.01-5.01s4.91,1.67,4.91,5.01v100.26c0,6.11,1.13,10.29,3.4,12.52,2.27,2.24,6.46,3.35,12.57,3.35,3.4,0,5.1,1.64,5.1,4.91.06,3.34-1.61,5.01-5.01,5.01Z"/>
      <path class="cls-1" d="M725.28,332.07c-11.59,0-20.07-2.68-25.42-8.03-5.36-5.35-8.03-13.8-8.03-25.33v-46.02h-11.25c-3.34,0-5.01-1.67-5.01-5.01s1.67-4.91,5.01-4.91h11.25v-20.32c0-3.34,1.67-5.01,5.01-5.01s4.91,1.67,4.91,5.01v20.32h23.72c3.27,0,4.91,1.64,4.91,4.91s-1.64,5.01-4.91,5.01h-23.72v46.02c0,8.82,1.72,14.93,5.15,18.33,3.43,3.4,9.56,5.1,18.38,5.1,1.83,0,3.13.41,3.92,1.23.79.82,1.18,2.05,1.18,3.69,0,3.34-1.7,5.01-5.1,5.01Z"/>
      <path class="cls-1" d="M756.37,291.25v6.9c0,8.88,1.78,15.1,5.34,18.66,3.56,3.56,9.84,5.34,18.85,5.34h15.5c7.94,0,13.72-1.02,17.34-3.07,3.62-2.05,5.75-5.59,6.38-10.63.31-1.57.87-2.77,1.65-3.59.79-.82,2-1.23,3.64-1.23s2.88.46,3.73,1.37c.85.91,1.18,2.19.99,3.83-.82,7.94-4,13.8-9.54,17.58-5.54,3.78-13.61,5.67-24.19,5.67h-15.5c-11.78,0-20.41-2.72-25.89-8.17-5.48-5.45-8.22-14.03-8.22-25.75v-21.36c0-11.91,2.74-20.58,8.22-26.03,5.48-5.45,14.11-8.11,25.89-7.99h15.5c11.78,0,20.4,2.73,25.85,8.17,5.45,5.45,8.17,14.07,8.17,25.85v9.45c0,3.34-1.64,5.01-4.91,5.01h-68.8ZM780.56,252.69c-9.01-.13-15.29,1.59-18.85,5.15-3.56,3.56-5.34,9.88-5.34,18.95v4.54h63.79v-4.54c0-9.01-1.76-15.28-5.29-18.81-3.53-3.53-9.8-5.29-18.81-5.29h-15.5Z"/>
      <path class="cls-1" d="M867.88,332.07c-3.34,0-5.01-1.67-5.01-5.01v-79.38c0-3.27,1.67-4.91,5.01-4.91s4.91,1.64,4.91,4.91v9.07c5.98-9.32,16.82-13.99,32.51-13.99h5.29c11.78,0,20.4,2.73,25.85,8.17,5.45,5.45,8.17,14.07,8.17,25.85v50.27c0,3.34-1.64,5.01-4.91,5.01s-5.01-1.67-5.01-5.01v-50.27c0-9.01-1.78-15.28-5.34-18.81-3.56-3.53-9.81-5.29-18.76-5.29h-5.29c-9.77,0-17.45,1.54-23.06,4.63-5.61,3.09-8.76,7.91-9.45,14.46v55.28c0,3.34-1.64,5.01-4.91,5.01Z"/>
    </g>
  </g>
</svg>