<svg width="81" height="80" viewBox="0 0 81 80" fill="none" xmlns="http://www.w3.org/2000/svg">
<path d="M40.2314 0C18.1749 0 0.230469 17.944 0.230469 40C0.230469 62.056 18.0844 80 40.029 80H40.5916L40.6023 47.8814C44.4109 47.7803 47.538 44.9851 48.1573 41.3293H60.0836C59.9097 47.3295 56.9796 52.8897 52.1399 56.4391C51.5489 55.8818 50.7538 55.5428 49.8806 55.5428C48.0491 55.5428 46.5619 57.03 46.5619 58.8562C46.5619 60.6824 48.0491 62.1749 49.8806 62.1749C50.7201 62.1749 51.4868 61.859 52.0724 61.3408L63.3562 72.619L63.8975 72.2463C74.1236 64.7305 80.2305 52.6749 80.2305 39.9982C80.2322 17.944 62.2878 0 40.2314 0ZM49.8824 61.048C48.6773 61.048 47.6906 60.0683 47.6906 58.8562C47.6906 57.6441 48.6773 56.6698 49.8824 56.6698C51.0874 56.6698 52.0689 57.6494 52.0689 58.8562C52.0689 60.063 51.0892 61.048 49.8824 61.048ZM40.3822 45.9257C37.1469 45.9257 34.5256 43.3045 34.5256 40.0692C34.5256 36.8339 37.1469 34.2127 40.3822 34.2127C43.6176 34.2127 46.2389 36.8339 46.2389 40.0692C46.2389 43.3045 43.6176 45.9257 40.3822 45.9257ZM32.5024 40.1633H27.9839C22.4112 40.1739 16.8403 40.197 15.1099 40.2023C14.8952 38.7595 13.7416 37.6219 12.2934 37.4249C13.3192 24.1803 23.8381 13.3866 37.1043 11.9544C37.0989 12.0396 37.0936 12.123 37.0936 12.2135C37.0936 13.848 38.288 15.2163 39.848 15.4807V20.2245C35.9667 20.3771 32.2645 21.6052 29.0594 23.8076C28.5305 23.4633 27.9093 23.2788 27.2616 23.2788C26.3777 23.2788 25.5436 23.6284 24.9171 24.2531C24.2924 24.8778 23.9481 25.7119 23.9481 26.5975C23.9481 27.483 24.2924 28.3154 24.9171 28.9418C25.5418 29.5683 26.376 29.9161 27.2616 29.9161C27.9608 29.9161 28.6192 29.7014 29.1712 29.3021L34.5575 34.6883C33.2779 36.085 32.4953 37.9502 32.4953 40.0018C32.4953 40.0586 32.4953 40.1083 32.5006 40.165L32.5024 40.1633ZM14.0291 40.7046C14.0291 41.9167 13.0494 42.8963 11.8426 42.8963C10.6358 42.8963 9.65079 41.9167 9.65079 40.7046C9.65079 39.4924 10.6376 38.5181 11.8426 38.5181C13.0476 38.5181 14.0291 39.4978 14.0291 40.7046ZM38.2206 12.2135C38.2206 11.0085 39.2002 10.0217 40.4124 10.0217C41.6245 10.0217 42.5989 11.0085 42.5989 12.2135C42.5989 13.4185 41.6192 14.4053 40.4124 14.4053C39.2056 14.4053 38.2206 13.4185 38.2206 12.2135ZM28.8127 28.145C27.9626 28.9951 26.5712 28.9951 25.7193 28.145C24.8621 27.2878 24.8621 25.9035 25.7193 25.0464C26.1417 24.6187 26.7061 24.4092 27.2633 24.4092C27.8206 24.4092 28.385 24.6169 28.8127 25.0464C29.6681 25.9035 29.6681 27.2878 28.8127 28.145ZM63.4893 71.1531L52.7841 60.4481C53.0485 59.9743 53.1958 59.4277 53.1958 58.8544C53.1958 58.2812 53.061 57.7896 52.8231 57.3335C57.945 53.5765 61.0437 47.6774 61.2123 41.3275H65.3315C65.5906 42.8928 66.9536 44.0942 68.5935 44.0942C70.425 44.0942 71.9123 42.607 71.9123 40.7755C71.9123 38.944 70.425 37.4622 68.5935 37.4622C66.9661 37.4622 65.6084 38.6459 65.3368 40.2005H48.2656C48.2709 40.1331 48.2709 40.0657 48.2709 39.9982C48.2709 35.6431 44.7445 32.1115 40.384 32.1115C38.485 32.1115 36.7387 32.7876 35.3757 33.9092L29.9734 28.507C30.3673 27.9551 30.5821 27.2896 30.5821 26.5975C30.5821 25.8645 30.3461 25.167 29.9059 24.592C33.1004 22.4624 36.8079 21.3355 40.6662 21.3355C47.3534 21.3355 53.6076 24.8281 57.1517 30.4734C56.9938 30.5799 56.8412 30.7041 56.701 30.8443C56.0762 31.4761 55.7319 32.3031 55.7319 33.194C55.7319 34.0849 56.0762 34.9119 56.701 35.5384C57.3328 36.1631 58.1598 36.5074 59.0507 36.5074C59.9416 36.5074 60.7687 36.1631 61.3951 35.5384C62.0199 34.9137 62.3642 34.0796 62.3642 33.194C62.3642 32.3084 62.0199 31.4761 61.3951 30.8443C60.7704 30.2196 59.9363 29.8753 59.0507 29.8753C58.7526 29.8753 58.4597 29.9144 58.1775 29.9942C54.5092 24.0401 47.9799 20.315 40.9767 20.2139V15.4807C42.5367 15.211 43.7258 13.8462 43.7258 12.2135C43.7258 10.382 42.2386 8.8948 40.4124 8.8948C39.0938 8.8948 37.9508 9.6668 37.4202 10.7884C23.3749 12.0893 12.1869 23.4758 11.1664 37.464C9.65612 37.7745 8.52383 39.1091 8.52383 40.7028C8.52383 42.5343 10.0111 44.0215 11.8426 44.0215C13.4541 44.0215 14.8011 42.8608 15.0939 41.3293C19.2859 41.3115 26.7114 41.2902 32.6035 41.2849C32.8396 42.7614 33.4944 44.096 34.4351 45.1715L22.2603 57.3406C21.6906 56.9289 21.0216 56.7319 20.356 56.7319C19.5059 56.7319 18.6594 57.0531 18.0116 57.7009C17.3798 58.3256 17.0373 59.1597 17.0373 60.0453C17.0373 60.9308 17.3816 61.7632 18.0116 62.3896C18.6363 63.0214 19.4651 63.3639 20.356 63.3639C20.9807 63.3639 21.5788 63.1954 22.0917 62.8688C24.374 64.6719 26.9031 66.1147 29.6024 67.1565C29.5634 67.3588 29.5403 67.5735 29.5403 67.7936C29.5403 69.6198 31.0276 71.107 32.8538 71.107C34.68 71.107 36.1725 69.6198 36.1725 67.7936C36.1725 65.9674 34.6853 64.4749 32.8538 64.4749C31.6487 64.4749 30.5892 65.128 30.0088 66.097C27.4727 65.1227 25.1017 63.7863 22.9489 62.1075C23.8665 60.9575 23.9073 59.33 23.0607 58.1357L35.2301 45.9665C36.4015 46.9799 37.8674 47.6507 39.4842 47.8371L39.4664 78.8731C18.4003 78.5678 1.35743 61.2503 1.35743 40C1.35743 18.7497 18.7943 1.12694 40.2314 1.12694C61.6685 1.12694 79.1053 18.5687 79.1053 40C79.1053 52.2259 73.2628 63.8484 63.4876 71.1549L63.4893 71.1531ZM66.407 40.7755C66.407 39.5705 67.3867 38.5891 68.5935 38.5891C69.8003 38.5891 70.7853 39.5687 70.7853 40.7755C70.7853 41.9823 69.8056 42.9673 68.5935 42.9673C67.3813 42.9673 66.407 41.9877 66.407 40.7755ZM57.4996 31.6429C57.9273 31.2152 58.4863 31.0005 59.0489 31.0005C59.6115 31.0005 60.1706 31.2152 60.593 31.6429C61.4502 32.493 61.4502 33.8844 60.593 34.7362C59.7429 35.5934 58.3515 35.5934 57.4996 34.7362C56.6424 33.8862 56.6424 32.4948 57.4996 31.6429ZM21.8983 61.5946C21.0766 62.4234 19.6337 62.4234 18.8049 61.5946C17.9477 60.7445 17.9477 59.3531 18.8049 58.4959C19.655 57.6459 21.0464 57.6459 21.8983 58.4959C22.7555 59.3531 22.7555 60.7445 21.8983 61.5946ZM30.6637 67.7918C30.6637 66.5797 31.6434 65.6001 32.8502 65.6001C34.057 65.6001 35.042 66.5797 35.042 67.7918C35.042 69.0039 34.0553 69.9783 32.8502 69.9783C31.6452 69.9783 30.6637 68.9986 30.6637 67.7918Z" fill="white"/>
</svg>
