<svg width="23" height="24" viewBox="0 0 23 24" fill="none" xmlns="http://www.w3.org/2000/svg">
<path d="M11.2658 0.770508C5.04414 0.770508 0 5.81465 0 12.0363C0 18.258 5.04414 23.3021 11.2658 23.3021C17.4875 23.3021 22.5316 18.258 22.5316 12.0363C22.5316 5.81465 17.4875 0.770508 11.2658 0.770508ZM18.9328 11.9072C18.3531 13.9849 16.2415 14.5148 14.3625 14.1944C17.6466 14.7548 18.4816 16.6123 16.6774 18.4692C13.2518 21.9961 11.7532 17.5843 11.3694 16.4538C11.2986 16.2449 11.2658 16.1481 11.2658 16.2335C11.2658 16.1481 11.2324 16.2449 11.1616 16.4538C10.7778 17.5843 9.27986 21.9961 5.85369 18.4692C4.04946 16.6123 4.88449 14.7548 8.16856 14.1944C6.29017 14.5148 4.17797 13.9849 3.59827 11.9072C3.43183 11.3094 3.14763 7.62793 3.14763 7.13088C3.14763 4.63995 5.3238 5.42289 6.66721 6.43455C8.52805 7.83683 10.5304 10.6793 11.2658 12.2045C12.0006 10.6793 14.003 7.83683 15.8644 6.43455C17.2078 5.42289 19.384 4.63995 19.384 7.13088C19.384 7.62793 19.0998 11.3094 18.9328 11.9072Z" fill="#3DA98F"/>
</svg>
