<svg width="23" height="24" viewBox="0 0 23 24" fill="none" xmlns="http://www.w3.org/2000/svg">
<path d="M22.475 12.008C22.475 5.80158 17.4439 0.770508 11.2375 0.770508C5.03107 0.770508 0 5.80158 0 12.008C0 17.6168 4.10877 22.2666 9.48113 23.109V15.2561H6.62763V12.008H9.48113V9.53243C9.48113 6.71556 11.1593 5.16063 13.7264 5.16063C14.9567 5.16063 16.2419 5.38038 16.2419 5.38038V8.14564H14.8252C13.4301 8.14564 12.9939 9.01134 12.9939 9.90036V12.008H16.1104L15.6126 15.2561H12.9939V23.109C18.3662 22.2666 22.475 17.6168 22.475 12.008Z" fill="#3DA98F"/>
<path d="M15.611 15.2561L16.1088 12.008H12.9922V9.90037C12.9922 9.01136 13.4267 8.14566 14.8235 8.14566H16.2403V5.3804C16.2403 5.3804 14.955 5.16064 13.7248 5.16064C11.1576 5.16064 9.47947 6.71558 9.47947 9.53245V12.008H6.62598V15.2561H9.47947V23.109C10.0522 23.1989 10.6382 23.2455 11.2359 23.2455C11.8335 23.2455 12.4195 23.1989 12.9922 23.109V15.2561H15.611Z" fill="white"/>
</svg>
