<svg width="23" height="24" viewBox="0 0 23 24" fill="none" xmlns="http://www.w3.org/2000/svg">
<path d="M11.2375 23.2455C17.4438 23.2455 22.475 18.2143 22.475 12.008C22.475 5.80171 17.4438 0.770508 11.2375 0.770508C5.0312 0.770508 0 5.80171 0 12.008C0 18.2143 5.0312 23.2455 11.2375 23.2455Z" fill="#3DA98F"/>
<path d="M12.1066 10.4748C12.2914 10.2667 12.4429 10.0569 12.6327 9.87878C13.2154 9.32939 13.9046 9.05303 14.7104 9.05969C15.1532 9.06302 15.5894 9.09465 16.0156 9.21785C16.9912 9.4992 17.5572 10.1718 17.8286 11.1241C18.0317 11.8383 18.0683 12.5724 18.07 13.3083C18.0733 14.8599 18.065 16.4132 18.07 17.9648C18.07 18.1096 18.03 18.1479 17.8869 18.1479C17.0877 18.1413 16.287 18.1413 15.4879 18.1479C15.3463 18.1479 15.3164 18.1063 15.3164 17.9731C15.3214 16.4964 15.3214 15.0197 15.3164 13.5414C15.3164 13.1718 15.2914 12.8005 15.1882 12.4409C14.9967 11.7783 14.5223 11.4404 13.828 11.477C12.8791 11.5269 12.3863 11.9964 12.2664 12.9604C12.2381 13.1901 12.2232 13.4215 12.2248 13.6529C12.2248 15.0896 12.2248 16.5264 12.2281 17.9631C12.2281 18.1063 12.1932 18.1479 12.0467 18.1479C11.2409 18.1413 10.4351 18.1413 9.62937 18.1479C9.49952 18.1479 9.46289 18.1146 9.46289 17.9831C9.46622 15.1396 9.46622 12.2944 9.46289 9.45092C9.46289 9.30941 9.50951 9.27778 9.64269 9.27778C10.4068 9.28277 11.1727 9.28444 11.9368 9.27778C12.0783 9.27778 12.1133 9.32273 12.1116 9.45591C12.1033 9.79554 12.1083 10.1352 12.1083 10.4764L12.1066 10.4748Z" fill="#FEFEFE"/>
<path d="M7.72482 13.7243C7.72482 15.131 7.72315 16.5378 7.72815 17.9446C7.72815 18.1011 7.68986 18.1477 7.52837 18.146C6.72926 18.1377 5.93015 18.1394 5.12937 18.146C5.00118 18.146 4.96289 18.1144 4.96289 17.9829C4.96622 15.1344 4.96622 12.2859 4.96289 9.4357C4.96289 9.3175 4.99119 9.27588 5.11605 9.27588C5.92682 9.28087 6.73758 9.28254 7.54835 9.27588C7.70484 9.27588 7.72482 9.33415 7.72482 9.469C7.72149 10.8874 7.72316 12.3058 7.72316 13.7243H7.72482Z" fill="#FEFEFE"/>
<path d="M7.94626 6.45416C7.94626 7.33817 7.23039 8.05737 6.34803 8.05737C5.47734 8.05737 4.75481 7.33817 4.75148 6.46748C4.74815 5.58845 5.47068 4.86426 6.35136 4.86426C7.22539 4.86426 7.94459 5.58179 7.94626 6.45249V6.45416Z" fill="#FEFEFE"/>
</svg>
